<svg width="972" height="576" viewBox="0 0 972 576" fill="none" xmlns="http://www.w3.org/2000/svg">
<path d="M43.2949 221.046C44.2242 269.693 65.6705 274.959 92.0072 269.886C122.094 264.09 146.788 245.923 158.959 221.886L167.353 205.309C172.933 194.289 173.121 181.84 167.875 170.703C162.629 159.565 152.379 150.65 139.38 145.919H139.38C132.944 143.576 126.026 142.332 119.022 142.256C112.019 142.18 105.066 143.274 98.5607 145.476C92.0557 147.678 86.126 150.945 81.1102 155.09C76.0944 159.235 72.0907 164.177 69.3276 169.634C42.318 178.629 36.9836 197.251 43.2949 221.046Z" fill="#2F2E41"/>
<path d="M212.643 123.136L220.727 111.54C221.714 110.123 222.31 108.536 222.47 106.897C222.631 105.258 222.351 103.609 221.652 102.074C220.954 100.54 219.854 99.1591 218.436 98.0363C217.018 96.9134 215.319 96.0772 213.466 95.5906C211.509 95.077 209.437 94.9672 207.42 95.2704C205.404 95.5736 203.502 96.281 201.874 97.3337C200.245 98.3863 198.937 99.7537 198.058 101.322C197.179 102.89 196.755 104.614 196.821 106.349L197.296 118.815L159.307 207.078L180.023 210.745L212.643 123.136Z" fill="#9F616A"/>
<path d="M12.7847 340.721L2.83482 351.224C1.61981 352.506 0.763115 354.005 0.329026 355.608C-0.105063 357.212 -0.105283 358.877 0.328379 360.481C0.762042 362.084 1.61833 363.583 2.833 364.866C4.04767 366.149 5.58919 367.181 7.34191 367.887C9.19188 368.632 11.225 368.991 13.2718 368.934C15.3186 368.878 17.3198 368.407 19.1087 367.562C20.8975 366.717 22.4222 365.521 23.5556 364.075C24.689 362.629 25.3984 360.974 25.6245 359.249L27.2491 346.853L79.6828 264.078L59.7941 257.947L12.7847 340.721Z" fill="#9F616A"/>
<path d="M74.2585 428.095L75.723 443.01L76.0666 446.489L173.448 438.549C176.805 438.228 180.025 437.241 182.847 435.666C185.669 434.092 188.013 431.975 189.688 429.489C191.363 427.002 192.323 424.215 192.489 421.355C192.655 418.494 192.023 415.641 190.643 413.027L159.237 355.866L148.389 336.123L101.379 326.926C62.6146 352.08 97.492 379.84 141.374 407.922C143.091 409.026 144.827 410.13 146.581 411.233L74.2585 428.095Z" fill="#2F2E41"/>
<path d="M41.445 479.742C42.6316 479.886 43.8417 479.768 44.9595 479.402C46.0773 479.035 47.0652 478.431 47.8286 477.648L79.6826 444.956L77.8746 429.628L67.0133 424.103C66.1248 423.651 65.1309 423.368 64.1007 423.275C63.0705 423.181 62.0286 423.279 61.0475 423.562C60.0663 423.844 59.1694 424.304 58.4192 424.91C57.6689 425.516 57.0832 426.253 56.7027 427.07L35.9265 471.692C35.5385 472.525 35.3782 473.422 35.4577 474.316C35.5371 475.209 35.8543 476.076 36.3853 476.85C36.9163 477.625 37.6475 478.288 38.5238 478.788C39.4001 479.289 40.3988 479.615 41.445 479.742Z" fill="#2F2E41"/>
<path opacity="0.2" d="M68.8343 425.029L70.6423 443.424L75.723 443.01L168.024 435.483C171.381 435.162 174.601 434.175 177.423 432.6C180.245 431.026 182.588 428.91 184.264 426.423C185.939 423.936 186.899 421.149 187.065 418.289C187.231 415.428 186.598 412.575 185.219 409.961L159.237 360.649V355.866L148.389 336.123L101.379 326.926C62.6146 352.08 97.492 379.84 141.374 407.922L141.157 408.168L68.8343 425.029Z" fill="black"/>
<path d="M32.4048 473.61C33.5913 473.754 34.8015 473.637 35.9193 473.27C37.0371 472.904 38.025 472.3 38.7883 471.516L70.6424 438.825L68.8343 423.496L57.973 417.971C57.0846 417.519 56.0907 417.237 55.0605 417.143C54.0302 417.05 52.9883 417.148 52.0072 417.43C51.0261 417.712 50.1292 418.173 49.3789 418.778C48.6286 419.384 48.0429 420.121 47.6625 420.938L26.8863 465.56C26.4983 466.394 26.338 467.291 26.4174 468.184C26.4969 469.078 26.8141 469.944 27.3451 470.719C27.8761 471.494 28.6072 472.156 29.4835 472.657C30.3598 473.158 31.3586 473.484 32.4048 473.61Z" fill="#2F2E41"/>
<path d="M65.2182 421.963L67.0262 440.358L164.408 432.415C167.765 432.095 170.985 431.107 173.807 429.534C176.628 427.96 178.973 425.844 180.649 423.357C182.325 420.871 183.285 418.085 183.452 415.225C183.619 412.364 182.988 409.511 181.61 406.897L155.621 357.583V329.991L92.339 320.794C52.0489 346.936 91.3052 375.895 137.54 405.102L65.2182 421.963Z" fill="#2F2E41"/>
<path d="M126.692 205.829C141.671 205.829 153.813 195.535 153.813 182.836C153.813 170.137 141.671 159.843 126.692 159.843C111.714 159.843 99.5713 170.137 99.5713 182.836C99.5713 195.535 111.714 205.829 126.692 205.829Z" fill="#9F616A"/>
<path d="M90.531 221.158L128.5 242.618L161.045 236.487L142.965 221.158V198.165L114.036 196.632C113.428 205.814 107.223 214.216 90.531 221.158Z" fill="#9F616A"/>
<path d="M85.1068 328.459L155.621 336.123L171.894 271.742C179.453 254.653 175.116 239.555 161.12 226.072C160.584 223.803 159.159 221.755 157.074 220.261C154.99 218.767 152.37 217.916 149.642 217.846L142.965 218.092C143.72 238.422 126.053 233.525 99.5713 216.559L96.3736 217.373C92.2399 218.424 88.6909 220.702 86.3761 223.79C84.0612 226.878 83.1353 230.569 83.7678 234.189L86.6836 250.875C87.92 257.49 89.8407 264 92.4233 270.33C99.6528 288.647 97.0693 308.04 85.1068 328.459Z" fill="#6C63FF"/>
<path d="M52.5618 259.479L85.1068 268.677L99.5713 224.224L94.671 222.335C90.6083 220.77 85.9952 220.573 81.7678 221.785C77.5404 222.998 74.0153 225.528 71.9079 228.863L52.5618 259.479Z" fill="#6C63FF"/>
<path d="M148.389 218.092L166.47 234.953L188.166 205.829L161.045 193.566L148.389 218.092Z" fill="#6C63FF"/>
<path d="M95.0512 175.938C112.094 181.387 130.282 180.822 149.293 175.938V157.544H95.0512V175.938Z" fill="#2F2E41"/>
<path d="M940.908 491.696L922.21 498.301L797.561 354.316L707.19 500.943L683.819 496.98L752.376 294.873H831.839L940.908 491.696Z" fill="#2F2E41"/>
<path d="M965.992 525.285C964.955 525.525 963.873 525.588 962.807 525.472C961.742 525.355 960.714 525.062 959.783 524.607L920.351 505.36C919.287 504.84 918.378 504.12 917.695 503.255C917.012 502.389 916.572 501.402 916.411 500.37C916.25 499.338 916.372 498.288 916.766 497.302C917.161 496.316 917.818 495.42 918.686 494.684L922.21 491.696L940.907 490.375L969.49 513.638C970.53 514.485 971.286 515.549 971.682 516.724C972.078 517.899 972.099 519.142 971.743 520.326C971.388 521.51 970.668 522.593 969.657 523.464C968.647 524.335 967.382 524.964 965.992 525.285Z" fill="#2F2E41"/>
<path d="M660.293 530.569C661.329 530.809 662.411 530.872 663.477 530.756C664.543 530.639 665.571 530.345 666.502 529.891L705.933 510.643C706.997 510.124 707.906 509.404 708.59 508.538C709.273 507.673 709.712 506.686 709.873 505.654C710.034 504.622 709.913 503.572 709.518 502.586C709.124 501.6 708.467 500.704 707.599 499.968L704.074 496.98L685.377 495.659L656.794 518.922C655.755 519.768 654.998 520.833 654.603 522.008C654.207 523.183 654.186 524.426 654.541 525.61C654.897 526.794 655.617 527.877 656.627 528.748C657.637 529.619 658.902 530.247 660.293 530.569Z" fill="#2F2E41"/>
<path d="M699.4 84.8396L691.61 88.8024L675.465 66.5608C674.474 65.1947 673.884 63.6466 673.746 62.0469C673.608 60.4472 673.926 58.8429 674.673 57.3692C675.42 55.8956 676.574 54.5958 678.038 53.5794C679.501 52.5631 681.232 51.8601 683.083 51.5297C684.729 51.2359 686.43 51.2439 688.072 51.5532C689.715 51.8624 691.26 52.4658 692.604 53.3228C693.949 54.1798 695.062 55.2707 695.868 56.5222C696.675 57.7738 697.156 59.157 697.28 60.5792L699.4 84.8396Z" fill="#FFB9B9"/>
<path d="M915.209 258.002L918.441 250.804L947.351 259.82C949.127 260.374 950.719 261.281 951.994 262.466C953.269 263.651 954.19 265.079 954.678 266.628C955.165 268.178 955.206 269.805 954.797 271.371C954.388 272.937 953.541 274.396 952.327 275.626C951.248 276.72 949.905 277.606 948.389 278.224C946.873 278.841 945.219 279.177 943.537 279.209C941.855 279.24 940.185 278.966 938.638 278.405C937.092 277.844 935.704 277.01 934.569 275.957L915.209 258.002Z" fill="#FFB9B9"/>
<path d="M792.887 164.097C805.795 164.097 816.258 155.226 816.258 144.283C816.258 133.34 805.795 124.469 792.887 124.469C779.979 124.469 769.515 133.34 769.515 144.283C769.515 155.226 779.979 164.097 792.887 164.097Z" fill="#FFB9B9"/>
<path d="M813.142 186.553H780.422V156.172L808.468 153.529L813.142 186.553Z" fill="#FFB9B9"/>
<path d="M836.514 302.799H747.702C750.833 260.787 753.313 220.188 747.702 197.121L752.866 176.106C753.581 173.195 755.563 170.618 758.417 168.888C761.272 167.159 764.789 166.404 768.27 166.772L780.422 168.06C788.651 180.326 798.597 180.207 810.026 169.381H824.663C826.614 169.381 828.546 169.711 830.345 170.352C832.145 170.993 833.775 171.931 835.141 173.112C836.507 174.294 837.582 175.694 838.302 177.232C839.021 178.77 839.372 180.414 839.334 182.068C843.147 196.869 844.415 212.06 843.1 227.17L836.514 302.799Z" fill="#3F3D56"/>
<path d="M686.935 84.8393L699.4 79.5558L766.399 173.344L747.702 197.121L686.935 84.8393Z" fill="#3F3D56"/>
<path d="M915.386 261.761L926.038 254.143L869.435 186.899C863.898 180.321 856.264 175.216 847.428 172.183C838.591 169.15 828.919 168.314 819.543 169.774L817.757 170.052L839.16 201.806L867.35 219.901L915.386 261.761Z" fill="#3F3D56"/>
<path d="M819.916 132.586C819.916 132.586 824.283 124.44 812.929 120.738C812.929 120.738 803.321 107.409 784.105 116.295C784.105 116.295 771.003 120.738 771.003 132.586C771.003 144.434 766.635 146.656 766.635 146.656C766.635 146.656 773.139 140.999 774.886 136.556C776.633 132.113 790.219 131.105 795.459 135.548C800.7 139.991 813.802 139.251 813.802 139.251L812.929 155.542C812.929 155.542 817.296 145.915 819.043 145.915C820.79 145.915 822.536 132.586 819.916 132.586Z" fill="#2F2E41"/>
<path d="M681.273 111.098L221.746 146.014C219.49 146.183 217.247 145.587 215.508 144.356C213.77 143.124 212.679 141.359 212.474 139.446L202.258 42.8067C202.058 40.8938 202.762 38.9919 204.214 37.5181C205.667 36.0444 207.749 35.1192 210.005 34.9456L669.532 0.0294656C671.788 -0.139711 674.031 0.456768 675.77 1.68805C677.508 2.91934 678.599 4.68489 678.804 6.59741L689.02 103.237C689.22 105.15 688.516 107.052 687.064 108.526C685.611 109.999 683.529 110.924 681.273 111.098Z" fill="#6C63FF"/>
<path d="M275.444 116.376C295.262 116.376 311.328 102.755 311.328 85.9531C311.328 69.1512 295.262 55.5306 275.444 55.5306C255.626 55.5306 239.56 69.1512 239.56 85.9531C239.56 102.755 255.626 116.376 275.444 116.376Z" fill="white"/>
<path d="M355.853 59.4804C354.275 59.6028 352.819 60.251 351.805 61.2825C350.79 62.314 350.3 63.6446 350.441 64.9824C350.583 66.3201 351.344 67.5556 352.559 68.4177C353.774 69.2798 355.342 69.6981 356.921 69.5808L637.742 48.2432C638.525 48.1847 639.287 47.9958 639.984 47.6874C640.681 47.3791 641.299 46.9573 641.803 46.4461C642.308 45.935 642.688 45.3445 642.924 44.7086C643.159 44.0726 643.244 43.4036 643.173 42.7398C643.103 42.076 642.879 41.4304 642.515 40.84C642.15 40.2496 641.651 39.7259 641.048 39.299C640.444 38.872 639.747 38.5502 638.997 38.3518C638.246 38.1534 637.457 38.0824 636.674 38.1428L355.853 59.4804Z" fill="white"/>
<path d="M359.056 89.7815C358.273 89.8397 357.51 90.0283 356.813 90.3366C356.116 90.6448 355.497 91.0666 354.992 91.5778C354.488 92.089 354.107 92.6796 353.872 93.3157C353.636 93.9519 353.551 94.6211 353.622 95.2851C353.692 95.9492 353.916 96.5949 354.281 97.1855C354.646 97.776 355.144 98.2998 355.748 98.7267C356.352 99.1537 357.049 99.4755 357.8 99.6737C358.551 99.8719 359.341 99.9426 360.124 99.8818L640.945 78.5443C641.728 78.4857 642.49 78.2969 643.187 77.9885C643.884 77.6802 644.502 77.2583 645.007 76.7472C645.511 76.2361 645.892 75.6456 646.127 75.0096C646.362 74.3737 646.447 73.7046 646.377 73.0408C646.306 72.377 646.083 71.7315 645.718 71.1411C645.353 70.5507 644.855 70.027 644.251 69.6001C643.647 69.1731 642.95 68.8513 642.2 68.6529C641.449 68.4545 640.66 68.3835 639.877 68.4439L359.056 89.7815Z" fill="white"/>
</svg>
