<svg width="40" height="40" viewBox="0 0 40 40" fill="none" xmlns="http://www.w3.org/2000/svg">
<path d="M13.5859 31.0469C13.5859 31.2031 13.4062 31.3281 13.1797 31.3281C12.9219 31.3516 12.7422 31.2266 12.7422 31.0469C12.7422 30.8906 12.9219 30.7656 13.1484 30.7656C13.3828 30.7422 13.5859 30.8672 13.5859 31.0469ZM11.1562 30.6953C11.1016 30.8516 11.2578 31.0312 11.4922 31.0781C11.6953 31.1562 11.9297 31.0781 11.9766 30.9219C12.0234 30.7656 11.875 30.5859 11.6406 30.5156C11.4375 30.4609 11.2109 30.5391 11.1562 30.6953ZM14.6094 30.5625C14.3828 30.6172 14.2266 30.7656 14.25 30.9453C14.2734 31.1016 14.4766 31.2031 14.7109 31.1484C14.9375 31.0938 15.0938 30.9453 15.0703 30.7891C15.0469 30.6406 14.8359 30.5391 14.6094 30.5625ZM19.75 0.625C8.91406 0.625 0.625 8.85156 0.625 19.6875C0.625 28.3516 6.07812 35.7656 13.8672 38.375C14.8672 38.5547 15.2188 37.9375 15.2188 37.4297C15.2188 36.9453 15.1953 34.2734 15.1953 32.6328C15.1953 32.6328 9.72656 33.8047 8.57812 30.3047C8.57812 30.3047 7.6875 28.0312 6.40625 27.4453C6.40625 27.4453 4.61719 26.2188 6.53125 26.2422C6.53125 26.2422 8.47656 26.3984 9.54688 28.2578C11.2578 31.2734 14.125 30.4062 15.2422 29.8906C15.4219 28.6406 15.9297 27.7734 16.4922 27.2578C12.125 26.7734 7.71875 26.1406 7.71875 18.625C7.71875 16.4766 8.3125 15.3984 9.5625 14.0234C9.35938 13.5156 8.69531 11.4219 9.76562 8.71875C11.3984 8.21094 15.1562 10.8281 15.1562 10.8281C16.7188 10.3906 18.3984 10.1641 20.0625 10.1641C21.7266 10.1641 23.4062 10.3906 24.9688 10.8281C24.9688 10.8281 28.7266 8.20312 30.3594 8.71875C31.4297 11.4297 30.7656 13.5156 30.5625 14.0234C31.8125 15.4062 32.5781 16.4844 32.5781 18.625C32.5781 26.1641 27.9766 26.7656 23.6094 27.2578C24.3281 27.875 24.9375 29.0469 24.9375 30.8828C24.9375 33.5156 24.9141 36.7734 24.9141 37.4141C24.9141 37.9219 25.2734 38.5391 26.2656 38.3594C34.0781 35.7656 39.375 28.3516 39.375 19.6875C39.375 8.85156 30.5859 0.625 19.75 0.625ZM8.21875 27.5703C8.11719 27.6484 8.14062 27.8281 8.27344 27.9766C8.39844 28.1016 8.57812 28.1562 8.67969 28.0547C8.78125 27.9766 8.75781 27.7969 8.625 27.6484C8.5 27.5234 8.32031 27.4688 8.21875 27.5703ZM7.375 26.9375C7.32031 27.0391 7.39844 27.1641 7.55469 27.2422C7.67969 27.3203 7.83594 27.2969 7.89062 27.1875C7.94531 27.0859 7.86719 26.9609 7.71094 26.8828C7.55469 26.8359 7.42969 26.8594 7.375 26.9375ZM9.90625 29.7188C9.78125 29.8203 9.82812 30.0547 10.0078 30.2031C10.1875 30.3828 10.4141 30.4062 10.5156 30.2812C10.6172 30.1797 10.5703 29.9453 10.4141 29.7969C10.2422 29.6172 10.0078 29.5938 9.90625 29.7188ZM9.01562 28.5703C8.89062 28.6484 8.89062 28.8516 9.01562 29.0312C9.14062 29.2109 9.35156 29.2891 9.45312 29.2109C9.57812 29.1094 9.57812 28.9062 9.45312 28.7266C9.34375 28.5469 9.14062 28.4688 9.01562 28.5703Z" fill="white"/>
</svg>
