<svg width="800" height="698" viewBox="0 0 800 698" fill="none" xmlns="http://www.w3.org/2000/svg">
<path d="M660.946 36.6087C743.717 108.003 658.229 240.959 675.559 349.365C693.906 464.137 840.548 583.99 762.066 669.179C683.751 754.187 553.282 626.153 440.135 604.908C352.129 588.384 252.877 624.223 188.534 561.49C108.501 483.46 53.2321 366.381 85.2269 258.883C117.658 149.919 232.861 99.1223 338.261 58.4293C444.176 17.5376 574.773 -37.7192 660.946 36.6087Z" fill="#7577A6" fill-opacity="0.1"/>
<path d="M798.844 605.46H1.15607C0.849461 605.46 0.555409 605.338 0.338603 605.121C0.121799 604.905 0 604.61 0 604.304C0 603.997 0.121799 603.704 0.338603 603.486C0.555409 603.269 0.849461 603.148 1.15607 603.148H798.844C799.15 603.148 799.445 603.269 799.661 603.486C799.879 603.704 800 603.997 800 604.304C800 604.61 799.879 604.905 799.661 605.121C799.445 605.338 799.15 605.46 798.844 605.46Z" fill="#CCCCCC"/>
<path d="M719.889 403.839H250.525C248.532 403.839 246.621 404.631 245.212 406.04C243.802 407.45 243.01 409.361 243.01 411.354C243.01 413.347 243.802 415.259 245.212 416.668C246.621 418.077 248.532 418.868 250.525 418.868H263.82V598.637C263.82 600.63 264.612 602.542 266.021 603.951C267.43 605.361 269.341 606.151 271.334 606.151C273.327 606.151 275.239 605.361 276.649 603.951C278.058 602.542 278.849 600.63 278.849 598.637L278.963 418.868H690.409V598.637C690.409 600.63 691.201 602.542 692.61 603.951C694.02 605.361 695.931 606.151 697.924 606.151C699.917 606.151 701.829 605.361 703.238 603.951C704.647 602.542 705.438 600.63 705.438 598.637V422.831L707.624 418.868H719.889C721.882 418.868 723.794 418.077 725.204 416.668C726.613 415.259 727.403 413.347 727.403 411.354C727.403 409.361 726.613 407.45 725.204 406.04C723.794 404.631 721.882 403.839 719.889 403.839Z" fill="#CCCCCC"/>
<path d="M510.744 407.772H368.569C365.816 407.769 363.177 406.674 361.23 404.727C359.283 402.781 358.188 400.142 358.185 397.388V319.112C358.188 316.359 359.283 313.72 361.23 311.773C363.177 309.826 365.816 308.732 368.569 308.728H510.744C513.497 308.732 516.136 309.826 518.083 311.773C520.03 313.72 521.125 316.359 521.128 319.112V397.388C521.125 400.142 520.03 402.781 518.083 404.727C516.136 406.674 513.497 407.769 510.744 407.772Z" fill="#3F3D56"/>
<path d="M510.743 316.72H368.57C367.935 316.721 367.327 316.974 366.88 317.423C366.431 317.872 366.178 318.478 366.177 319.113V397.391C366.178 398.025 366.431 398.633 366.88 399.081C367.328 399.529 367.935 399.782 368.57 399.784H510.743C511.378 399.782 511.986 399.529 512.435 399.081C512.883 398.633 513.135 398.025 513.136 397.391V319.113C513.135 318.478 512.883 317.872 512.435 317.423C511.986 316.974 511.378 316.721 510.743 316.72Z" fill="white"/>
<path d="M451.783 372.14C451.783 372.14 434.763 368.218 425.401 375.408C416.04 382.599 437.316 398.94 437.316 398.94L451.783 372.14Z" fill="#2F2E41"/>
<path d="M440.49 364.729C449.357 364.729 456.545 357.542 456.545 348.675C456.545 339.809 449.357 332.621 440.49 332.621C431.624 332.621 424.436 339.809 424.436 348.675C424.436 357.542 431.624 364.729 440.49 364.729Z" fill="#FFB8B8"/>
<path d="M428.076 326.139C429.147 324.321 430.698 322.836 432.561 321.845C434.422 320.854 436.521 320.398 438.627 320.525C440.829 320.801 442.978 321.403 445.003 322.31L455.498 326.405C458.214 327.463 461.188 328.761 462.366 331.428C463.46 333.902 462.644 336.759 461.819 339.336L457.891 351.583C457.457 348.811 456.71 346.097 455.667 343.492C454.606 340.872 452.689 338.685 450.228 337.292C447.502 335.894 444.289 335.922 441.229 336.069C436.894 336.278 432.182 336.83 429.102 339.887C427.467 341.623 426.36 343.787 425.906 346.128C425.46 348.458 425.236 350.823 425.236 353.194C423.458 350.139 421.961 346.929 420.763 343.604C419.777 341.128 419.215 338.504 419.101 335.841C418.998 333.156 419.888 330.527 421.602 328.458C422.473 327.446 423.608 326.698 424.881 326.298C426.154 325.897 427.513 325.86 428.806 326.191L428.076 326.139Z" fill="#2F2E41"/>
<path d="M478.824 386.061C478.674 385.519 478.366 385.033 477.94 384.666C477.514 384.297 476.99 384.062 476.431 383.992C476.394 383.966 476.356 383.943 476.316 383.922L452.349 370.491C451.665 370.107 450.859 370.002 450.098 370.199C449.339 370.394 448.684 370.875 448.269 371.541L441.714 382.154L431.842 372.281L431.686 372.124C431.178 371.617 430.51 371.305 429.795 371.243C429.082 371.18 428.369 371.371 427.782 371.783L408.084 385.576C408.05 385.576 408.015 385.587 407.98 385.587C407.038 385.744 406.177 386.218 405.54 386.93C404.903 387.644 404.528 388.552 404.477 389.506L403.969 399.784H482.628L478.824 386.061Z" fill="#FF3636"/>
<path d="M522.726 398.187H507.549C507.549 397.764 507.382 397.357 507.082 397.058C506.783 396.758 506.376 396.589 505.953 396.589H501.16C500.736 396.589 500.329 396.758 500.03 397.058C499.731 397.357 499.562 397.764 499.562 398.187H494.77C494.77 397.764 494.601 397.357 494.302 397.058C494.002 396.758 493.597 396.589 493.172 396.589H488.38C487.956 396.589 487.55 396.758 487.25 397.058C486.95 397.357 486.783 397.764 486.783 398.187H481.99C481.99 397.764 481.822 397.357 481.523 397.058C481.222 396.758 480.816 396.589 480.392 396.589H475.6C475.177 396.589 474.77 396.758 474.471 397.058C474.171 397.357 474.002 397.764 474.002 398.187H469.21C469.21 397.764 469.042 397.357 468.742 397.058C468.443 396.758 468.036 396.589 467.613 396.589H462.821C462.397 396.589 461.991 396.758 461.69 397.058C461.391 397.357 461.223 397.764 461.223 398.187H456.43C456.43 397.764 456.262 397.357 455.963 397.058C455.662 396.758 455.257 396.589 454.832 396.589H450.041C449.616 396.589 449.21 396.758 448.911 397.058C448.612 397.357 448.443 397.764 448.443 398.187H443.651C443.651 397.764 443.482 397.357 443.183 397.058C442.883 396.758 442.476 396.589 442.053 396.589H437.26C436.837 396.589 436.43 396.758 436.131 397.058C435.831 397.357 435.664 397.764 435.664 398.187H430.871C430.871 397.764 430.703 397.357 430.402 397.058C430.103 396.758 429.697 396.589 429.273 396.589H424.481C424.057 396.589 423.651 396.758 423.352 397.058C423.052 397.357 422.883 397.764 422.883 398.187H418.091C418.091 397.764 417.923 397.357 417.623 397.058C417.324 396.758 416.917 396.589 416.494 396.589H411.701C411.278 396.589 410.871 396.758 410.571 397.058C410.272 397.357 410.104 397.764 410.104 398.187H405.311C405.311 397.764 405.142 397.357 404.843 397.058C404.543 396.758 404.138 396.589 403.713 396.589H398.921C398.497 396.589 398.091 396.758 397.792 397.058C397.493 397.357 397.324 397.764 397.324 398.187H392.531C392.531 397.764 392.363 397.357 392.064 397.058C391.764 396.758 391.357 396.589 390.934 396.589H386.141C385.718 396.589 385.311 396.758 385.012 397.058C384.712 397.357 384.543 397.764 384.543 398.187H379.752C379.752 397.764 379.583 397.357 379.283 397.058C378.984 396.758 378.578 396.589 378.154 396.589H373.362C372.938 396.589 372.532 396.758 372.232 397.058C371.932 397.357 371.764 397.764 371.764 398.187H356.589C355.318 398.189 354.102 398.695 353.204 399.594C352.306 400.492 351.804 401.71 351.804 402.98C351.804 404.25 352.306 405.467 353.204 406.366C354.102 407.265 355.318 407.77 356.589 407.772H522.726C523.997 407.772 525.216 407.267 526.114 406.369C527.013 405.469 527.518 404.251 527.518 402.98C527.518 401.709 527.013 400.49 526.114 399.591C525.216 398.692 523.997 398.187 522.726 398.187Z" fill="#3F3D56"/>
<path d="M331.883 370.356V402.178H252.158C250.022 402.252 247.892 401.896 245.898 401.129C243.903 400.364 242.082 399.203 240.544 397.719C239.007 396.233 237.785 394.454 236.949 392.488C236.114 390.52 235.684 388.404 235.684 386.267C235.684 384.129 236.114 382.015 236.949 380.047C237.785 378.08 239.007 376.3 240.544 374.816C242.082 373.331 243.903 372.171 245.898 371.404C247.892 370.638 250.022 370.282 252.158 370.356H331.883Z" fill="#F2F2F2"/>
<path d="M333.842 401.933C333.842 402.258 333.712 402.569 333.483 402.799C333.253 403.028 332.942 403.157 332.617 403.157H250.739C246.291 403.157 242.027 401.391 238.882 398.246C235.738 395.102 233.971 390.837 233.971 386.389C233.971 381.942 235.738 377.677 238.882 374.533C242.027 371.388 246.291 369.622 250.739 369.622H332.617C332.942 369.622 333.253 369.751 333.483 369.98C333.712 370.21 333.842 370.521 333.842 370.846C333.842 371.171 333.712 371.482 333.483 371.711C333.253 371.941 332.942 372.069 332.617 372.069H250.739C246.942 372.073 243.304 373.584 240.621 376.268C237.939 378.954 236.431 382.594 236.431 386.389C236.431 390.185 237.939 393.825 240.621 396.511C243.304 399.195 246.942 400.706 250.739 400.71H332.617C332.942 400.71 333.253 400.838 333.483 401.068C333.712 401.297 333.842 401.609 333.842 401.933Z" fill="#FF3636"/>
<path d="M331.883 377.699H246.209C246.177 377.7 246.146 377.694 246.116 377.682C246.086 377.669 246.058 377.652 246.036 377.629C246.013 377.606 245.994 377.579 245.982 377.549C245.97 377.519 245.963 377.488 245.963 377.455C245.963 377.423 245.97 377.391 245.982 377.361C245.994 377.33 246.013 377.304 246.036 377.281C246.058 377.259 246.086 377.24 246.116 377.229C246.146 377.216 246.177 377.21 246.209 377.21H331.883C331.948 377.21 332.009 377.237 332.056 377.282C332.101 377.328 332.126 377.391 332.126 377.455C332.126 377.52 332.101 377.581 332.056 377.628C332.009 377.674 331.948 377.699 331.883 377.699Z" fill="#CCCCCC"/>
<path d="M331.883 383.574H246.209C246.177 383.574 246.146 383.569 246.116 383.556C246.086 383.544 246.058 383.526 246.036 383.504C246.013 383.481 245.994 383.453 245.982 383.424C245.97 383.394 245.963 383.362 245.963 383.329C245.963 383.297 245.97 383.266 245.982 383.236C245.994 383.206 246.013 383.179 246.036 383.156C246.058 383.133 246.086 383.115 246.116 383.103C246.146 383.091 246.177 383.084 246.209 383.085H331.883C331.948 383.085 332.009 383.111 332.056 383.157C332.101 383.203 332.126 383.265 332.126 383.329C332.126 383.394 332.101 383.456 332.056 383.503C332.009 383.548 331.948 383.574 331.883 383.574Z" fill="#CCCCCC"/>
<path d="M331.883 389.45H246.209C246.177 389.45 246.146 389.444 246.116 389.431C246.086 389.418 246.058 389.401 246.036 389.378C246.013 389.356 245.994 389.328 245.982 389.298C245.97 389.269 245.963 389.237 245.963 389.204C245.963 389.172 245.97 389.14 245.982 389.111C245.994 389.081 246.013 389.053 246.036 389.031C246.058 389.008 246.086 388.991 246.116 388.978C246.146 388.965 246.177 388.959 246.209 388.959H331.883C331.948 388.961 332.009 388.986 332.056 389.032C332.101 389.077 332.126 389.14 332.126 389.204C332.126 389.269 332.101 389.332 332.056 389.377C332.009 389.423 331.948 389.448 331.883 389.45Z" fill="#CCCCCC"/>
<path d="M331.883 395.324H246.209C246.177 395.325 246.146 395.318 246.116 395.306C246.086 395.294 246.058 395.276 246.036 395.253C246.013 395.23 245.994 395.203 245.982 395.173C245.97 395.143 245.963 395.112 245.963 395.08C245.963 395.047 245.97 395.015 245.982 394.985C245.994 394.955 246.013 394.928 246.036 394.905C246.058 394.883 246.086 394.865 246.116 394.853C246.146 394.84 246.177 394.835 246.209 394.835H331.883C331.948 394.835 332.009 394.861 332.056 394.906C332.101 394.952 332.126 395.015 332.126 395.08C332.126 395.144 332.101 395.206 332.056 395.252C332.009 395.298 331.948 395.324 331.883 395.324Z" fill="#CCCCCC"/>
<path d="M316.854 336.83V368.652H237.129C234.993 368.726 232.864 368.37 230.869 367.603C228.874 366.838 227.053 365.677 225.516 364.193C223.978 362.707 222.756 360.928 221.92 358.962C221.086 356.994 220.655 354.878 220.655 352.741C220.655 350.603 221.086 348.489 221.92 346.521C222.756 344.554 223.978 342.774 225.516 341.29C227.053 339.805 228.874 338.645 230.869 337.878C232.864 337.112 234.993 336.756 237.129 336.83H316.854Z" fill="#F2F2F2"/>
<path d="M318.813 368.407C318.813 368.732 318.683 369.043 318.454 369.273C318.224 369.502 317.913 369.631 317.588 369.631H235.71C233.507 369.631 231.327 369.198 229.292 368.355C227.258 367.512 225.41 366.277 223.853 364.72C222.296 363.163 221.061 361.314 220.218 359.28C219.376 357.246 218.942 355.066 218.942 352.863C218.942 350.661 219.376 348.481 220.218 346.447C221.061 344.413 222.296 342.564 223.853 341.007C225.41 339.45 227.258 338.215 229.292 337.372C231.327 336.529 233.507 336.096 235.71 336.096H317.588C317.913 336.096 318.224 336.225 318.454 336.454C318.683 336.684 318.813 336.995 318.813 337.32C318.813 337.645 318.683 337.956 318.454 338.185C318.224 338.415 317.913 338.543 317.588 338.543H235.71C231.913 338.547 228.275 340.058 225.592 342.742C222.91 345.428 221.402 349.068 221.402 352.863C221.402 356.659 222.91 360.299 225.592 362.985C228.275 365.669 231.913 367.18 235.71 367.184H317.588C317.913 367.184 318.224 367.312 318.454 367.542C318.683 367.771 318.813 368.083 318.813 368.407Z" fill="#3F3D56"/>
<path d="M316.855 344.173H231.18C231.148 344.174 231.117 344.168 231.087 344.156C231.057 344.143 231.029 344.126 231.007 344.103C230.984 344.08 230.965 344.053 230.953 344.023C230.941 343.993 230.934 343.962 230.934 343.929C230.934 343.897 230.941 343.865 230.953 343.835C230.965 343.804 230.984 343.778 231.007 343.755C231.029 343.733 231.057 343.714 231.087 343.703C231.117 343.69 231.148 343.684 231.18 343.684H316.855C316.919 343.684 316.981 343.711 317.027 343.756C317.072 343.802 317.097 343.865 317.097 343.929C317.097 343.994 317.072 344.055 317.027 344.102C316.981 344.148 316.919 344.173 316.855 344.173Z" fill="#CCCCCC"/>
<path d="M316.855 350.048H231.18C231.148 350.048 231.117 350.043 231.087 350.03C231.057 350.018 231.029 350 231.007 349.978C230.984 349.955 230.965 349.927 230.953 349.898C230.941 349.868 230.934 349.836 230.934 349.803C230.934 349.771 230.941 349.74 230.953 349.71C230.965 349.68 230.984 349.653 231.007 349.63C231.029 349.607 231.057 349.589 231.087 349.577C231.117 349.565 231.148 349.558 231.18 349.559H316.855C316.919 349.559 316.981 349.585 317.027 349.631C317.072 349.677 317.097 349.739 317.097 349.803C317.097 349.868 317.072 349.93 317.027 349.977C316.981 350.022 316.919 350.048 316.855 350.048Z" fill="#CCCCCC"/>
<path d="M316.855 355.924H231.18C231.148 355.924 231.117 355.918 231.087 355.905C231.057 355.892 231.029 355.875 231.007 355.852C230.984 355.83 230.965 355.802 230.953 355.772C230.941 355.743 230.934 355.711 230.934 355.678C230.934 355.646 230.941 355.614 230.953 355.585C230.965 355.555 230.984 355.527 231.007 355.505C231.029 355.482 231.057 355.465 231.087 355.452C231.117 355.439 231.148 355.433 231.18 355.433H316.855C316.919 355.435 316.981 355.46 317.027 355.506C317.072 355.551 317.097 355.614 317.097 355.678C317.097 355.743 317.072 355.806 317.027 355.851C316.981 355.897 316.919 355.922 316.855 355.924Z" fill="#CCCCCC"/>
<path d="M316.855 361.798H231.18C231.148 361.799 231.117 361.792 231.087 361.78C231.057 361.768 231.029 361.75 231.007 361.727C230.984 361.704 230.965 361.677 230.953 361.647C230.941 361.617 230.934 361.586 230.934 361.554C230.934 361.521 230.941 361.489 230.953 361.459C230.965 361.429 230.984 361.402 231.007 361.379C231.029 361.357 231.057 361.339 231.087 361.327C231.117 361.314 231.148 361.309 231.18 361.309H316.855C316.919 361.309 316.981 361.335 317.027 361.38C317.072 361.426 317.097 361.489 317.097 361.554C317.097 361.618 317.072 361.68 317.027 361.726C316.981 361.772 316.919 361.798 316.855 361.798Z" fill="#CCCCCC"/>
<path d="M409.599 515.286V487.541C409.599 486.314 409.112 485.138 408.245 484.271C407.377 483.404 406.201 482.917 404.975 482.917H299.772C298.546 482.917 297.37 483.404 296.503 484.271C295.636 485.138 295.148 486.314 295.148 487.541V515.286H409.599Z" fill="#CCCCCC"/>
<path d="M409.599 525.691H295.148V561.529H409.599V525.691Z" fill="#CCCCCC"/>
<path d="M295.148 571.934V599.68C295.148 600.906 295.636 602.082 296.503 602.949C297.37 603.817 298.546 604.304 299.772 604.304H404.975C406.201 604.304 407.377 603.817 408.245 602.949C409.112 602.082 409.599 600.906 409.599 599.68V571.934H295.148Z" fill="#CCCCCC"/>
<path d="M351.795 503.726C353.711 503.726 355.263 502.173 355.263 500.258C355.263 498.342 353.711 496.789 351.795 496.789C349.88 496.789 348.327 498.342 348.327 500.258C348.327 502.173 349.88 503.726 351.795 503.726Z" fill="white"/>
<path d="M351.795 549.969C353.711 549.969 355.263 548.416 355.263 546.5C355.263 544.585 353.711 543.032 351.795 543.032C349.88 543.032 348.327 544.585 348.327 546.5C348.327 548.416 349.88 549.969 351.795 549.969Z" fill="white"/>
<path d="M351.981 595.232C353.897 595.232 355.45 593.68 355.45 591.764C355.45 589.848 353.897 588.296 351.981 588.296C350.066 588.296 348.513 589.848 348.513 591.764C348.513 593.68 350.066 595.232 351.981 595.232Z" fill="white"/>
<path d="M396.623 451.281V483.103H316.898C314.762 483.177 312.632 482.821 310.638 482.054C308.643 481.289 306.822 480.128 305.285 478.644C303.747 477.158 302.525 475.379 301.689 473.412C300.854 471.445 300.424 469.329 300.424 467.192C300.424 465.054 300.854 462.94 301.689 460.972C302.525 459.004 303.747 457.225 305.285 455.741C306.822 454.255 308.643 453.096 310.638 452.329C312.632 451.563 314.762 451.207 316.898 451.281H396.623Z" fill="#F2F2F2"/>
<path d="M398.582 482.858C398.582 483.182 398.452 483.493 398.223 483.723C397.993 483.952 397.682 484.082 397.357 484.082H315.479C313.275 484.084 311.094 483.652 309.057 482.809C307.021 481.967 305.171 480.733 303.613 479.176C302.054 477.618 300.817 475.77 299.975 473.734C299.131 471.699 298.697 469.518 298.697 467.314C298.697 465.111 299.131 462.929 299.975 460.895C300.817 458.859 302.054 457.01 303.613 455.453C305.171 453.896 307.021 452.661 309.057 451.819C311.094 450.977 313.275 450.545 315.479 450.547H397.357C397.682 450.547 397.993 450.676 398.223 450.905C398.452 451.135 398.582 451.446 398.582 451.771C398.582 452.096 398.452 452.407 398.223 452.636C397.993 452.866 397.682 452.994 397.357 452.994H315.479C311.682 452.998 308.044 454.508 305.361 457.193C302.679 459.878 301.171 463.519 301.171 467.314C301.171 471.11 302.679 474.75 305.361 477.436C308.044 480.12 311.682 481.631 315.479 481.634H397.357C397.682 481.634 397.993 481.763 398.223 481.993C398.452 482.222 398.582 482.534 398.582 482.858Z" fill="#3F3D56"/>
<path d="M396.623 458.624H310.949C310.917 458.625 310.886 458.618 310.856 458.607C310.826 458.594 310.798 458.577 310.776 458.554C310.753 458.53 310.734 458.504 310.722 458.474C310.71 458.444 310.703 458.413 310.703 458.38C310.703 458.348 310.71 458.315 310.722 458.285C310.734 458.255 310.753 458.229 310.776 458.206C310.798 458.184 310.826 458.165 310.856 458.154C310.886 458.141 310.917 458.135 310.949 458.135H396.623C396.688 458.135 396.749 458.162 396.795 458.207C396.84 458.253 396.866 458.315 396.866 458.38C396.866 458.445 396.84 458.506 396.795 458.552C396.749 458.599 396.688 458.624 396.623 458.624Z" fill="#CCCCCC"/>
<path d="M396.623 464.499H310.949C310.917 464.499 310.886 464.493 310.856 464.481C310.826 464.469 310.798 464.451 310.776 464.429C310.753 464.406 310.734 464.378 310.722 464.349C310.71 464.319 310.703 464.286 310.703 464.254C310.703 464.222 310.71 464.191 310.722 464.16C310.734 464.13 310.753 464.104 310.776 464.081C310.798 464.058 310.826 464.04 310.856 464.028C310.886 464.016 310.917 464.009 310.949 464.01H396.623C396.688 464.01 396.749 464.036 396.795 464.082C396.84 464.128 396.866 464.189 396.866 464.254C396.866 464.319 396.84 464.381 396.795 464.428C396.749 464.473 396.688 464.499 396.623 464.499Z" fill="#CCCCCC"/>
<path d="M396.623 470.374H310.949C310.917 470.374 310.886 470.369 310.856 470.356C310.826 470.343 310.798 470.326 310.776 470.303C310.753 470.281 310.734 470.253 310.722 470.223C310.71 470.194 310.703 470.162 310.703 470.129C310.703 470.097 310.71 470.065 310.722 470.036C310.734 470.006 310.753 469.978 310.776 469.956C310.798 469.933 310.826 469.915 310.856 469.903C310.886 469.89 310.917 469.884 310.949 469.884H396.623C396.688 469.885 396.749 469.911 396.795 469.957C396.84 470.002 396.866 470.065 396.866 470.129C396.866 470.194 396.84 470.256 396.795 470.302C396.749 470.348 396.688 470.373 396.623 470.374Z" fill="#CCCCCC"/>
<path d="M396.623 476.248H310.949C310.917 476.25 310.886 476.243 310.856 476.231C310.826 476.218 310.798 476.201 310.776 476.178C310.753 476.155 310.734 476.128 310.722 476.098C310.71 476.068 310.703 476.037 310.703 476.004C310.703 475.972 310.71 475.94 310.722 475.91C310.734 475.88 310.753 475.853 310.776 475.83C310.798 475.808 310.826 475.789 310.856 475.778C310.886 475.765 310.917 475.759 310.949 475.759H396.623C396.688 475.759 396.749 475.786 396.795 475.831C396.84 475.877 396.866 475.94 396.866 476.004C396.866 476.069 396.84 476.13 396.795 476.177C396.749 476.223 396.688 476.248 396.623 476.248Z" fill="#CCCCCC"/>
<mask id="path-35-inside-1" fill="white">
<path d="M289.145 243.585V40.6953C289.148 38.39 290.065 36.1798 291.695 34.5497C293.325 32.9196 295.535 32.0026 297.84 32H458.22C460.525 32.0026 462.735 32.9196 464.365 34.5497C465.995 36.1798 466.912 38.39 466.916 40.6953V243.585C466.913 245.891 465.995 248.1 464.365 249.731C462.735 251.361 460.525 252.279 458.22 252.281H297.84C295.535 252.279 293.325 251.361 291.695 249.731C290.065 248.1 289.148 245.891 289.145 243.585ZM297.84 33.9323C296.047 33.9343 294.328 34.6475 293.06 35.9154C291.792 37.1832 291.08 38.9023 291.078 40.6953V243.585C291.08 245.378 291.792 247.097 293.06 248.365C294.328 249.633 296.047 250.347 297.84 250.348H458.22C460.013 250.347 461.732 249.633 463 248.365C464.268 247.097 464.982 245.378 464.983 243.585V40.6953C464.982 38.9023 464.268 37.1832 463 35.9154C461.732 34.6475 460.013 33.9343 458.22 33.9323H297.84Z"/>
</mask>
<path d="M289.145 243.585V40.6953C289.148 38.39 290.065 36.1798 291.695 34.5497C293.325 32.9196 295.535 32.0026 297.84 32H458.22C460.525 32.0026 462.735 32.9196 464.365 34.5497C465.995 36.1798 466.912 38.39 466.916 40.6953V243.585C466.913 245.891 465.995 248.1 464.365 249.731C462.735 251.361 460.525 252.279 458.22 252.281H297.84C295.535 252.279 293.325 251.361 291.695 249.731C290.065 248.1 289.148 245.891 289.145 243.585ZM297.84 33.9323C296.047 33.9343 294.328 34.6475 293.06 35.9154C291.792 37.1832 291.08 38.9023 291.078 40.6953V243.585C291.08 245.378 291.792 247.097 293.06 248.365C294.328 249.633 296.047 250.347 297.84 250.348H458.22C460.013 250.347 461.732 249.633 463 248.365C464.268 247.097 464.982 245.378 464.983 243.585V40.6953C464.982 38.9023 464.268 37.1832 463 35.9154C461.732 34.6475 460.013 33.9343 458.22 33.9323H297.84Z" fill="#CCCCCC"/>
<path d="M289.145 243.585H226.145V243.632L226.145 243.68L289.145 243.585ZM289.145 40.6953L226.145 40.6005L226.145 40.6479V40.6953H289.145ZM297.84 32V-31H297.805L297.769 -31L297.84 32ZM458.22 32L458.292 -31L458.256 -31H458.22V32ZM464.365 34.5497L419.817 79.0966L419.817 79.0968L464.365 34.5497ZM466.916 40.6953H529.916V40.6479L529.916 40.6005L466.916 40.6953ZM466.916 243.585L529.916 243.648L529.916 243.616V243.585H466.916ZM458.22 252.281V315.281H458.251L458.283 315.281L458.22 252.281ZM297.84 252.281L297.777 315.281L297.809 315.281H297.84V252.281ZM297.84 33.9323V-29.0677H297.805L297.77 -29.0677L297.84 33.9323ZM291.078 40.6953L228.078 40.6141L228.078 40.6547V40.6953H291.078ZM291.078 243.585H228.078V243.625L228.078 243.666L291.078 243.585ZM297.84 250.348L297.8 313.348H297.82H297.84V250.348ZM458.22 250.348V313.348H458.24H458.26L458.22 250.348ZM464.983 243.585L527.983 243.625L527.983 243.605V243.585H464.983ZM464.983 40.6953H527.983V40.675L527.983 40.6547L464.983 40.6953ZM458.22 33.9323L458.29 -29.0677L458.255 -29.0677H458.22V33.9323ZM352.145 243.585V40.6953H226.145V243.585H352.145ZM352.144 40.7901C352.123 55.148 346.413 68.9266 336.243 79.0966L247.146 -9.99725C233.717 3.433 226.173 21.632 226.145 40.6005L352.144 40.7901ZM336.243 79.0966C326.075 89.2655 312.289 94.9836 297.912 95L297.769 -31C278.781 -30.9784 260.575 -23.4263 247.146 -9.99725L336.243 79.0966ZM297.84 95H458.22V-31H297.84V95ZM458.148 95C443.771 94.9835 429.985 89.2655 419.817 79.0966L508.914 -9.99719C495.485 -23.4263 477.279 -30.9782 458.292 -31L458.148 95ZM419.817 79.0968C409.647 68.9268 403.937 55.148 403.916 40.7901L529.916 40.6005C529.887 21.6319 522.344 3.43288 508.914 -9.99738L419.817 79.0968ZM403.916 40.6953V243.585H529.916V40.6953H403.916ZM403.916 243.522C403.93 229.118 409.665 215.335 419.818 205.183L508.913 294.278C522.326 280.866 529.897 262.665 529.916 243.648L403.916 243.522ZM419.818 205.183C429.973 195.027 443.756 189.295 458.156 189.281L458.283 315.281C477.294 315.262 495.497 307.694 508.913 294.278L419.818 205.183ZM458.22 189.281H297.84V315.281H458.22V189.281ZM297.904 189.281C312.305 189.295 326.087 195.027 336.243 205.183L247.147 294.278C260.563 307.694 278.766 315.262 297.777 315.281L297.904 189.281ZM336.243 205.183C346.411 215.351 352.123 229.13 352.144 243.49L226.145 243.68C226.173 262.652 233.719 280.85 247.147 294.278L336.243 205.183ZM297.77 -29.0677C279.292 -29.0469 261.581 -21.6972 248.518 -8.63827L337.602 80.469C327.076 90.9922 312.803 96.9155 297.911 96.9323L297.77 -29.0677ZM248.518 -8.63827C235.43 4.44686 228.101 22.1687 228.078 40.6141L354.077 40.7765C354.058 55.6359 348.154 69.9196 337.602 80.469L248.518 -8.63827ZM228.078 40.6953V243.585H354.078V40.6953H228.078ZM228.078 243.666C228.101 262.112 235.43 279.831 248.512 292.913L337.608 203.817C348.154 214.363 354.058 228.643 354.077 243.504L228.078 243.666ZM248.512 292.913C261.574 305.975 279.296 313.336 297.8 313.348L297.881 187.348C312.799 187.357 327.083 193.292 337.608 203.817L248.512 292.913ZM297.84 313.348H458.22V187.348H297.84V313.348ZM458.26 313.348C476.764 313.336 494.486 305.975 507.548 292.913L418.452 203.817C428.978 193.292 443.262 187.357 458.179 187.348L458.26 313.348ZM507.548 292.913C520.61 279.851 527.971 262.129 527.983 243.625L401.983 243.544C401.992 228.627 407.927 214.343 418.452 203.817L507.548 292.913ZM527.983 243.585V40.6953H401.983V243.585H527.983ZM527.983 40.6547C527.971 22.1521 520.61 4.42635 507.542 -8.63827L418.458 80.469C407.927 69.9401 401.992 55.6525 401.983 40.7359L527.983 40.6547ZM507.542 -8.63827C494.479 -21.6973 476.768 -29.0469 458.29 -29.0677L458.149 96.9323C443.257 96.9155 428.984 90.9923 418.458 80.469L507.542 -8.63827ZM458.22 -29.0677H297.84V96.9323H458.22V-29.0677Z" fill="black" mask="url(#path-35-inside-1)"/>
<path d="M387.024 125.176V83.5167C387.025 82.3641 387.483 81.259 388.298 80.4439C389.113 79.6289 390.218 79.1704 391.371 79.1691H426.674C427.827 79.1704 428.932 79.6289 429.747 80.4439C430.562 81.259 431.021 82.3641 431.022 83.5167V125.176C431.021 126.329 430.562 127.434 429.747 128.249C428.932 129.064 427.827 129.523 426.674 129.524H391.371C390.218 129.523 389.113 129.064 388.298 128.249C387.483 127.434 387.025 126.329 387.024 125.176Z" fill="#6C63FF"/>
<path d="M318.428 144.499V102.84C318.429 101.687 318.887 100.582 319.702 99.7668C320.518 98.9518 321.622 98.4934 322.776 98.4921H358.078C359.231 98.4934 360.335 98.9518 361.152 99.7668C361.967 100.582 362.424 101.687 362.425 102.84V144.499C362.424 145.652 361.967 146.757 361.152 147.572C360.335 148.387 359.231 148.846 358.078 148.847H322.776C321.622 148.846 320.518 148.387 319.702 147.572C318.887 146.757 318.429 145.652 318.428 144.499Z" fill="#CCCCCC"/>
<path d="M373.498 203.435V161.775C373.499 160.622 373.957 159.517 374.772 158.702C375.587 157.887 376.692 157.428 377.845 157.427H413.148C414.301 157.428 415.406 157.887 416.221 158.702C417.036 159.517 417.495 160.622 417.496 161.775V203.435C417.495 204.587 417.036 205.692 416.221 206.507C415.406 207.322 414.301 207.78 413.148 207.781H377.845C376.692 207.78 375.587 207.322 374.772 206.507C373.957 205.692 373.499 204.587 373.498 203.435Z" fill="#FF6584"/>
<path d="M584.466 393.899H548.142C547.798 393.899 547.458 393.978 547.148 394.13L537.98 398.72C537.679 398.848 537.421 399.062 537.24 399.336C537.06 399.609 536.963 399.93 536.963 400.258C536.963 400.586 537.06 400.906 537.24 401.179C537.421 401.453 537.679 401.667 537.98 401.795L547.148 406.385C547.458 406.537 547.798 406.616 548.142 406.616H584.466C584.966 406.645 585.458 406.476 585.835 406.144C586.212 405.814 586.443 405.348 586.477 404.847V395.668C586.443 395.167 586.212 394.702 585.835 394.371C585.458 394.04 584.966 393.87 584.466 393.899Z" fill="#3F3D56"/>
<path d="M586.477 395.668V404.847C586.443 405.348 586.212 405.814 585.835 406.144C585.458 406.476 584.966 406.645 584.466 406.616H577.229V393.899H584.466C584.966 393.87 585.458 394.04 585.835 394.371C586.212 394.702 586.443 395.167 586.477 395.668Z" fill="#FF3636"/>
<path d="M584.192 325.229C585.838 324.519 587.615 324.164 589.406 324.188C591.198 324.214 592.964 324.616 594.59 325.371C596.215 326.126 597.662 327.215 598.837 328.569C600.013 329.921 600.888 331.507 601.407 333.222C601.569 333.766 601.692 334.32 601.777 334.881L652.572 360.07L664.328 352.28L678.954 369.118L661.005 383.696C658.846 385.436 656.185 386.432 653.415 386.54C650.645 386.646 647.915 385.858 645.628 384.289L594.091 348.65C593.707 348.813 593.316 348.955 592.918 349.077C591.202 349.596 589.397 349.747 587.62 349.519C585.842 349.291 584.132 348.691 582.603 347.756C581.074 346.822 579.76 345.574 578.746 344.097C577.732 342.62 577.042 340.943 576.721 339.18C576.625 338.669 576.563 338.151 576.533 337.632C576.39 335.03 577.047 332.446 578.417 330.229C579.786 328.011 581.802 326.266 584.192 325.229Z" fill="#FFB8B8"/>
<path d="M689.99 480.314H634.487C634.487 481.91 577.284 483.204 577.284 483.204C576.387 483.88 575.569 484.655 574.845 485.517C572.673 488.107 571.486 491.382 571.493 494.765V497.077C571.494 500.908 573.017 504.584 575.727 507.293C578.437 510.003 582.111 511.526 585.943 511.528H689.99C693.821 511.525 697.495 510.001 700.205 507.291C702.913 504.582 704.437 500.908 704.441 497.077V494.765C704.436 490.934 702.911 487.261 700.202 484.552C697.494 481.844 693.821 480.319 689.99 480.314Z" fill="#3F3D56"/>
<path d="M629.615 608.063H644.645V510.954H629.615V608.063Z" fill="#3F3D56"/>
<path d="M586.841 607.535C586.841 609.159 609.615 608.164 637.708 608.164C665.801 608.164 688.575 609.159 688.575 607.535C688.575 605.912 665.801 593.034 637.708 593.034C609.615 593.034 586.841 605.912 586.841 607.535Z" fill="#3F3D56"/>
<path d="M600.409 596.154L586.236 596.152L579.492 559.393L600.411 559.394L600.409 596.154Z" fill="#FFB8B8"/>
<path d="M604.024 609.892L558.323 609.89V609.312C558.323 606.977 558.783 604.663 559.676 602.505C560.571 600.347 561.881 598.386 563.533 596.734C565.185 595.083 567.146 593.772 569.304 592.878C571.461 591.985 573.775 591.525 576.111 591.525H576.112L604.025 591.526L604.024 609.892Z" fill="#2F2E41"/>
<path d="M579.211 573.358L550.955 509.996C548.595 504.656 548.335 498.623 550.224 493.099C552.113 487.576 556.014 482.965 561.149 480.188L622.437 447.324L650.404 444.945L676.202 442.6L676.387 442.915C676.625 443.318 682.172 452.898 678.423 463.403C675.579 471.371 668.181 477.595 656.435 481.903C629.02 491.955 597.349 500.547 585.006 503.773C584.46 503.912 583.95 504.165 583.51 504.517C583.07 504.867 582.708 505.307 582.45 505.807C582.191 506.301 582.036 506.845 581.998 507.401C581.959 507.958 582.035 508.517 582.222 509.043L608.473 568.019C608.747 568.767 608.845 569.569 608.761 570.36C608.678 571.152 608.412 571.914 607.986 572.588C607.561 573.262 606.986 573.829 606.308 574.245C605.628 574.661 604.863 574.915 604.07 574.989L584.455 576.418C584.288 576.433 584.123 576.441 583.957 576.441C582.953 576.441 581.97 576.15 581.127 575.602C580.285 575.055 579.619 574.276 579.211 573.358Z" fill="#2F2E41"/>
<path d="M607.345 596.154L593.172 596.152L586.429 559.393L607.347 559.394L607.345 596.154Z" fill="#FFB8B8"/>
<path d="M610.96 609.892L565.259 609.89V609.312C565.259 606.977 565.719 604.663 566.613 602.505C567.508 600.347 568.817 598.386 570.469 596.734C572.121 595.083 574.082 593.772 576.241 592.878C578.398 591.985 580.711 591.525 583.047 591.525H583.049L610.961 591.526L610.96 609.892Z" fill="#2F2E41"/>
<path d="M587.303 576.826L559.047 513.465C556.688 508.125 556.428 502.091 558.317 496.567C560.206 491.044 564.106 486.433 569.242 483.656L630.53 450.792L658.496 448.414L684.294 446.068L684.479 446.384C684.717 446.786 690.264 456.366 686.515 466.871C683.671 474.839 676.273 481.063 664.527 485.371C637.112 495.423 605.442 504.015 593.098 507.241C592.553 507.38 592.043 507.633 591.602 507.985C591.162 508.335 590.8 508.775 590.542 509.275C590.283 509.77 590.128 510.313 590.09 510.869C590.051 511.426 590.127 511.985 590.314 512.511L616.565 571.488C616.839 572.236 616.938 573.037 616.853 573.829C616.77 574.621 616.504 575.382 616.079 576.056C615.653 576.73 615.079 577.297 614.4 577.713C613.72 578.129 612.955 578.384 612.162 578.458L592.547 579.886C592.38 579.901 592.215 579.91 592.05 579.91C591.045 579.91 590.062 579.618 589.22 579.07C588.377 578.523 587.711 577.744 587.303 576.826Z" fill="#2F2E41"/>
<path d="M573.22 383.265C561.346 367.472 551.96 349.954 545.386 331.321C545.006 330.206 545.032 328.993 545.462 327.896C545.893 326.8 546.698 325.891 547.735 325.333L588.365 303.563C589.023 303.208 589.753 303.007 590.498 302.977C591.245 302.947 591.989 303.087 592.673 303.387C593.369 303.69 593.987 304.148 594.481 304.726C594.974 305.304 595.328 305.986 595.518 306.721C600.248 324.677 609.137 341.267 621.467 355.15C621.975 355.715 622.346 356.388 622.554 357.119C622.762 357.85 622.801 358.618 622.667 359.366C622.539 360.102 622.244 360.799 621.805 361.403C621.367 362.008 620.796 362.504 620.135 362.855L579.505 384.625C578.466 385.18 577.264 385.347 576.113 385.098C574.962 384.848 573.937 384.199 573.22 383.265Z" fill="#CCCCCC"/>
<path d="M575.992 381.181C576.21 381.454 576.517 381.643 576.86 381.713C577.202 381.784 577.558 381.733 577.867 381.569L618.497 359.798C618.695 359.695 618.866 359.548 618.997 359.367C619.127 359.188 619.215 358.98 619.252 358.761C619.295 358.529 619.282 358.291 619.217 358.065C619.153 357.838 619.036 357.63 618.876 357.456C606.183 343.165 597.031 326.085 592.163 307.601C592.106 307.373 591.999 307.161 591.846 306.981C591.694 306.801 591.503 306.66 591.287 306.566C591.083 306.475 590.861 306.433 590.638 306.443C590.416 306.452 590.199 306.512 590.003 306.62L549.373 328.391C549.066 328.556 548.825 328.825 548.695 329.149C548.564 329.474 548.55 329.833 548.657 330.167C555.112 348.467 564.331 365.67 575.992 381.181Z" fill="white"/>
<path d="M708.2 377.458L676.379 389.549L668.61 367.97C667.579 365.104 667.593 361.966 668.651 359.11C669.71 356.254 671.743 353.865 674.393 352.363C677.073 350.844 680.208 350.334 683.232 350.924C686.255 351.514 688.969 353.166 690.881 355.582L708.2 377.458Z" fill="#6C63FF"/>
<path d="M627.263 462.96C626.593 462.487 626.032 461.876 625.617 461.169C625.202 460.461 624.942 459.674 624.854 458.858C620.779 420.811 623.617 391.038 633.532 367.834C635.279 363.832 637.909 360.278 641.225 357.439C644.543 354.6 648.461 352.55 652.684 351.443L678.406 350.143L678.54 350.208C684.343 353.051 689.077 357.689 692.038 363.433C695 369.179 696.03 375.725 694.978 382.103C686.705 403.91 679.778 426.614 685.06 444.93C685.282 445.696 685.347 446.498 685.251 447.29C685.155 448.081 684.899 448.845 684.502 449.535C684.114 450.202 683.597 450.784 682.977 451.243C682.357 451.702 681.65 452.029 680.899 452.204L631.906 463.859C631.113 464.047 630.289 464.066 629.488 463.911C628.688 463.756 627.929 463.431 627.263 462.96Z" fill="#FF3636"/>
<path d="M669.822 340.536C685.504 340.536 698.216 327.824 698.216 312.142C698.216 296.461 685.504 283.748 669.822 283.748C654.14 283.748 641.428 296.461 641.428 312.142C641.428 327.824 654.14 340.536 669.822 340.536Z" fill="#FFB8B8"/>
<path d="M591.032 334.631L568.904 344.4C568.062 344.77 567.108 344.792 566.251 344.459C565.393 344.127 564.703 343.468 564.331 342.628L563.783 341.387C563.413 340.545 563.391 339.592 563.724 338.734C564.055 337.877 564.714 337.186 565.555 336.814L587.684 327.046C588.526 326.675 589.48 326.654 590.338 326.986C591.195 327.319 591.886 327.977 592.258 328.818L592.805 330.058C593.176 330.899 593.197 331.854 592.865 332.711C592.533 333.569 591.874 334.259 591.032 334.631Z" fill="#CCCCCC"/>
<path d="M599.125 349.66L576.997 359.429C576.155 359.799 575.2 359.821 574.343 359.488C573.486 359.156 572.795 358.497 572.423 357.656L571.875 356.416C571.505 355.574 571.483 354.621 571.816 353.763C572.148 352.906 572.807 352.215 573.647 351.843L595.777 342.075C596.619 341.704 597.573 341.683 598.43 342.015C599.288 342.348 599.978 343.006 600.351 343.847L600.897 345.087C601.269 345.928 601.289 346.883 600.958 347.74C600.626 348.598 599.967 349.288 599.125 349.66Z" fill="#CCCCCC"/>
<path d="M616.191 408.362L566.857 369.441C566.464 369.58 566.064 369.698 565.659 369.795C563.917 370.202 562.11 370.239 560.354 369.902C558.598 369.565 556.932 368.862 555.465 367.84C553.987 366.816 552.747 365.489 551.824 363.948C550.902 362.406 550.319 360.684 550.116 358.899C549.785 356.046 550.428 353.164 551.941 350.721C553.454 348.28 555.748 346.42 558.45 345.445C560.136 344.84 561.932 344.599 563.719 344.735C565.505 344.873 567.243 345.386 568.817 346.241C570.392 347.097 571.769 348.275 572.856 349.699C573.943 351.124 574.718 352.762 575.128 354.505C575.256 355.059 575.343 355.62 575.393 356.185L624.504 384.517L636.726 377.48L650.265 395.204L631.289 408.73C629.067 410.3 626.399 411.113 623.679 411.046C620.96 410.98 618.333 410.039 616.191 408.362Z" fill="#FFB8B8"/>
<path d="M656.284 400.725L628.135 381.584L641.364 362.847C643.121 360.359 645.7 358.572 648.647 357.802C651.594 357.032 654.718 357.328 657.467 358.639C660.247 359.965 662.463 362.241 663.713 365.056C664.963 367.873 665.164 371.043 664.281 373.995L656.284 400.725Z" fill="#FF3636"/>
<path d="M659.412 307.913C652.114 312.909 642.532 318.043 635.077 312.724C630.184 309.231 628.642 302.763 630.627 297.088C634.195 286.881 644.001 282.388 653.378 278.943C665.569 274.466 678.842 270.904 691.425 274.111C704.01 277.317 715.132 289.502 712.86 302.288C711.034 312.57 701.334 321.126 702.711 331.477C704.097 341.896 715.814 347.38 726.157 349.243C736.502 351.105 748.077 351.703 755.511 359.133C764.994 368.611 762.627 385.552 753.703 395.561C744.779 405.567 731.313 410.104 718.265 413.187C700.977 417.273 682.277 419.421 665.858 412.639C649.438 405.859 636.661 387.606 641.417 370.49C643.427 363.26 648.16 357.15 652.733 351.201C657.308 345.253 661.94 339.032 663.684 331.734C665.139 325.653 664.062 318.592 660.029 314.029C659.295 313.231 658.834 312.221 658.71 311.143C658.587 310.066 658.808 308.977 659.342 308.033L659.412 307.913Z" fill="#2F2E41"/>
<path d="M126.095 445.87C118.778 448.443 110.923 449.087 103.285 447.742C95.6469 446.396 88.4842 443.106 82.4868 438.189C67.2128 425.37 62.4239 404.248 58.5274 384.692C54.6857 365.41 50.844 346.129 47.0023 326.847L71.1313 343.462C88.4836 355.41 106.227 367.741 118.242 385.047C130.256 402.354 135.501 425.978 125.847 444.704" fill="#525252"/>
<path d="M124.032 515.904C126.475 498.115 128.986 480.097 127.273 462.118C125.751 446.15 120.88 430.554 110.962 417.766C105.698 410.992 99.2918 405.186 92.0327 400.613C90.1398 399.418 88.3976 402.418 90.2822 403.608C102.843 411.546 112.558 423.268 118.027 437.083C124.067 452.447 125.037 469.194 123.997 485.515C123.366 495.385 122.032 505.189 120.688 514.981C120.583 515.424 120.649 515.891 120.873 516.288C121.098 516.683 121.465 516.979 121.899 517.115C122.342 517.234 122.815 517.174 123.215 516.948C123.614 516.721 123.908 516.345 124.032 515.904Z" fill="#525252"/>
<path d="M100.51 484.425C97.3719 489.195 93.0585 493.076 87.9853 495.695C82.9122 498.313 77.2502 499.58 71.5449 499.375C56.8822 498.68 44.6583 488.446 33.6545 478.73L1.10732 449.994L22.6481 448.963C38.139 448.222 54.0296 447.529 68.7841 452.307C83.5386 457.084 97.146 468.58 99.8439 483.853" fill="#525252"/>
<path d="M130.934 526.129C119.179 505.33 105.545 482.215 81.1831 474.826C74.4092 472.78 67.3064 472.046 60.257 472.666C58.0353 472.858 58.5901 476.283 60.8077 476.091C72.624 475.111 84.4173 478.23 94.2025 484.926C103.619 491.335 110.95 500.246 117.155 509.696C120.956 515.483 124.361 521.517 127.766 527.542C128.854 529.468 132.035 528.078 130.934 526.129Z" fill="#525252"/>
<path d="M149.769 548.022C149.372 543.433 147.725 539.04 145.005 535.323C142.286 531.606 138.598 528.706 134.343 526.94V514.915H114.176V527.318C110.131 529.172 106.65 532.065 104.088 535.702C101.526 539.338 99.9741 543.589 99.5906 548.022L94.8484 603.148H154.511L149.769 548.022Z" fill="#525252"/>
<path d="M336.714 126.156H343.597L340.155 117.883L336.714 126.156ZM340.155 104.832L321.387 111.552L324.259 136.453L340.155 145.295L356.051 136.453L358.924 111.552L340.155 104.832ZM351.914 135.703H347.525L345.16 129.796H335.17L332.803 135.703H328.405L340.155 109.303L351.914 135.703Z" fill="#C52033"/>
<path d="M391.05 183.959H397.932L394.49 175.687L391.05 183.959ZM394.49 162.636L375.722 169.356L378.594 194.257L394.49 203.098L410.386 194.257L413.259 169.356L394.49 162.636ZM406.25 193.506H401.86L399.495 187.6H389.505L387.139 193.506H382.74L394.49 167.106L406.25 193.506Z" fill="#C52033"/>
<path d="M404.923 106.503H411.805L408.363 98.2301L404.923 106.503ZM408.363 85.1792L389.596 91.8988L392.467 116.8L408.363 125.642L424.259 116.8L427.132 91.8988L408.363 85.1792ZM420.123 116.05H415.733L413.368 110.143H403.378L401.012 116.05H396.613L408.363 89.6499L420.123 116.05Z" fill="#C52033"/>
</svg>
