<svg width="64" height="45" viewBox="0 0 64 45" fill="none" xmlns="http://www.w3.org/2000/svg">
<g clip-path="url(#clip0)">
<path d="M62.5864 7.01875C62.2193 5.66214 61.5032 4.42536 60.5094 3.43157C59.5157 2.43778 58.279 1.72165 56.9224 1.3545C51.9559 0 31.9674 0 31.9674 0C31.9674 0 11.9779 0.0409999 7.01136 1.3955C5.65473 1.76267 4.41797 2.47884 3.42422 3.47268C2.43047 4.46651 1.71441 5.70334 1.34736 7.06C-0.154893 15.8845 -0.737643 29.331 1.38861 37.8025C1.7557 39.1591 2.47177 40.3959 3.46552 41.3897C4.45927 42.3835 5.69601 43.0996 7.05261 43.4668C12.0191 44.8213 32.0081 44.8213 32.0081 44.8213C32.0081 44.8213 51.9969 44.8213 56.9631 43.4668C58.3197 43.0996 59.5565 42.3835 60.5503 41.3897C61.5441 40.3959 62.2602 39.1591 62.6274 37.8025C64.2119 28.9655 64.7001 15.5275 62.5864 7.019V7.01875Z" fill="#FF0000"/>
<path d="M25.605 32.015L42.1872 22.4105L25.6052 12.806L25.605 32.015Z" fill="white"/>
</g>
<defs>
<clipPath id="clip0">
<rect width="64" height="45" fill="white"/>
</clipPath>
</defs>
</svg>
